v 1.000000 -0.109281 -6.285402
v 1.000000 -0.109281 6.285402
v -1.000000 -0.109281 6.285401
v -1.000000 -0.109281 -6.285405
v 1.000000 1.890718 -6.285399
v 0.999999 1.890718 6.285406
v -1.000000 1.890718 6.285400
v -1.000000 1.890718 -6.285402
v 1.000000 -0.109281 -4.399670
v -1.000000 -0.109281 -4.399673
v 1.000000 1.890718 -4.399667
v -1.000000 1.890718 -4.399671
v 0.311876 -0.109281 -6.285403
v 0.311876 -0.109281 6.285402
v 0.311876 1.890718 -6.285400
v 0.311875 1.890718 6.285404
v 0.311876 1.890718 -4.399668
v 0.311876 -0.109281 -4.399671
v -0.332204 -0.109281 -6.285404
v -0.332204 -0.109281 6.285401
v -0.332204 1.890718 -6.285401
v -0.332205 1.890718 6.285402
v -0.332204 -0.109281 -4.399672
v -0.332204 1.890718 -4.399670
v 0.311876 3.277715 -6.285400
v 0.311876 3.277715 -5.694045
v -0.332204 3.277715 -6.285401
v -0.332204 3.277715 -5.694046
v 1.000000 -0.109281 1.159977
v 1.000000 1.890718 1.159981
v -1.000000 -0.109281 1.159976
v -1.000000 1.890718 1.159976
v 0.311876 1.890718 1.159979
v 0.311876 -0.109281 1.159977
v -0.332205 1.890718 1.159978
v -0.332204 -0.109281 1.159976
v -1.000000 -0.109281 -0.762190
v -1.000000 1.890718 -0.762189
v 0.311876 -0.109281 -0.762189
v -0.332204 -0.109281 -0.762189
v 1.000000 -0.109281 -0.762188
v 1.000000 1.890718 -0.762185
v 0.311876 1.890718 -0.762186
v -0.332204 1.890718 -0.762188
v 1.000000 1.243164 -6.285400
v 0.999999 1.243164 6.285405
v -1.000000 1.243164 6.285400
v -1.000000 1.243164 -6.285403
v -1.000000 1.243164 -4.399671
v 1.000000 1.243164 -4.399668
v 0.311876 1.243164 -6.285401
v 0.311875 1.243164 6.285404
v -0.332204 1.243164 -6.285402
v -0.332205 1.243164 6.285402
v -1.000000 1.243164 1.159976
v 1.000000 1.243164 1.159980
v 1.000000 1.243164 -0.762186
v -1.000000 1.243164 -0.762189
v -1.000000 0.745483 -4.399672
v 1.000000 0.745483 -4.399669
v 0.311875 0.745483 6.285403
v -0.332205 0.745483 6.285401
v -1.000000 0.745483 1.159976
v 1.000000 0.745483 1.159979
v 1.000000 0.745483 -0.762187
v -1.000000 0.745483 -0.762189
v 1.000000 0.745483 -6.285401
v 1.000000 0.745483 6.285404
v -1.000000 0.745483 6.285401
v -1.000000 0.745483 -6.285403
v 0.311876 0.745483 -6.285401
v -0.332204 0.745483 -6.285402
v 5.506914 1.243164 -0.762186
v 5.506914 1.243164 1.159980
v 5.506914 0.745483 1.159979
v 5.506914 0.745483 -0.762187
v -5.151754 1.243164 1.159976
v -5.151754 1.243164 -0.762189
v -5.151754 0.745483 1.159976
v -5.151754 0.745483 -0.762190
v -5.151754 1.243164 1.159976
v -5.151754 1.243164 -0.762189
v -5.151754 0.745483 1.159976
v -5.151754 0.745483 -0.762190
v -7.472553 1.243164 1.159976
v -7.472553 1.243164 -0.762189
v -7.472553 0.745483 1.159976
v -7.472553 0.745483 -0.762190
v 7.595667 1.243164 -0.762186
v 7.595667 1.243164 1.159980
v 7.595667 0.745483 1.159979
v 7.595667 0.745483 -0.762187
vt 0.1892 0.3604
vt 0.1423 0.0006
vt 0.1423 0.3604
vt 0.0475 0.3604
vt 0.0006 0.0006
vt 0.0475 0.0006
vt 0.5861 0.7215
vt 0.6315 0.3617
vt 0.6315 0.7215
vt 0.6033 0.3376
vt 0.5564 0.2922
vt 0.6033 0.2922
vt 0.9131 0.7228
vt 0.8676 0.8551
vt 0.9131 0.8551
vt 0.2718 0.6810
vt 0.3318 0.6341
vt 0.2718 0.6341
vt 0.5495 0.4979
vt 0.5041 0.7532
vt 0.5495 0.7532
vt 0.8206 0.2667
vt 0.8661 0.1343
vt 0.8661 0.2667
vt 0.9962 0.8551
vt 0.9493 0.7228
vt 0.9962 0.7228
vt 0.7340 0.7696
vt 0.8663 0.7228
vt 0.7340 0.7228
vt 0.7340 0.8632
vt 0.8663 0.8148
vt 0.7340 0.8148
vt 0.3823 0.9961
vt 0.3340 0.8637
vt 0.3823 0.8637
vt 0.9159 0.8564
vt 0.8676 0.9164
vt 0.9159 0.9164
vt 0.6968 0.3376
vt 0.6485 0.2922
vt 0.6968 0.2922
vt 0.1410 0.3604
vt 0.0927 0.0006
vt 0.1410 0.0006
vt 0.2827 0.0006
vt 0.2344 0.3604
vt 0.2827 0.3604
vt 0.8663 0.7696
vt 0.9180 0.1330
vt 0.8206 0.0915
vt 0.8206 0.1330
vt 0.3318 0.7262
vt 0.2718 0.7262
vt 0.6485 0.3376
vt 0.0927 0.3604
vt 0.1892 0.0006
vt 0.3746 0.6341
vt 0.3330 0.6793
vt 0.3330 0.6341
vt 0.9645 0.0980
vt 0.9193 0.0006
vt 0.9645 0.0006
vt 0.5198 0.8869
vt 0.4224 0.8454
vt 0.5198 0.7545
vt 0.1914 0.6810
vt 0.0940 0.7262
vt 0.1914 0.7262
vt 0.2902 0.7275
vt 0.3354 0.8624
vt 0.3354 0.7275
vt 0.0006 0.7545
vt 0.0459 0.8894
vt 0.0006 0.8894
vt 0.2419 0.7275
vt 0.2902 0.8624
vt 0.9655 0.9913
vt 0.9172 0.8564
vt 0.9655 0.8564
vt 0.6677 0.3617
vt 0.7132 0.7215
vt 0.7132 0.3617
vt 0.8663 0.8644
vt 0.8209 0.9994
vt 0.8209 0.8644
vt 0.0459 0.7545
vt 0.0927 0.8894
vt 0.3823 0.8624
vt 0.3823 0.7275
vt 0.6033 0.2560
vt 0.5564 0.0006
vt 0.5564 0.2560
vt 0.0475 0.7532
vt 0.0006 0.4979
vt 0.0475 0.4979
vt 0.4224 0.7532
vt 0.4678 0.4979
vt 0.4678 0.7532
vt 0.8720 0.3617
vt 0.9203 0.6170
vt 0.8720 0.6170
vt 0.6968 0.2560
vt 0.6485 0.0006
vt 0.6485 0.2560
vt 0.0927 0.7532
vt 0.0927 0.4979
vt 0.6033 0.0006
vt 0.7741 0.8644
vt 0.8196 0.9994
vt 0.8196 0.8644
vt 0.2921 0.9257
vt 0.0006 0.8907
vt 0.2921 0.8907
vt 0.5028 0.4979
vt 0.5028 0.7532
vt 0.4189 0.3170
vt 0.2840 0.0006
vt 0.2840 0.3170
vt 0.7481 0.7215
vt 0.7481 0.3617
vt 0.6033 0.2573
vt 0.6485 0.2573
vt 0.2368 0.7262
vt 0.6968 0.2573
vt 0.9159 0.9513
vt 0.8676 0.9968
vt 0.9159 0.9968
vt 0.9010 0.1343
vt 0.9010 0.2667
vt 0.5845 0.4979
vt 0.5845 0.7532
vt 0.2368 0.6810
vt 0.1914 0.6341
vt 0.9480 0.7228
vt 0.9480 0.8551
vt 0.5564 0.2573
vt 0.6665 0.3617
vt 0.6665 0.7215
vt 0.6981 0.3604
vt 0.7581 0.0006
vt 0.7581 0.3604
vt 0.8529 0.3004
vt 0.8997 0.3604
vt 0.8529 0.3604
vt 0.5245 0.8869
vt 0.5845 0.7545
vt 0.5245 0.7545
vt 0.8107 0.6170
vt 0.8707 0.3617
vt 0.8107 0.3617
vt 0.9216 0.6303
vt 0.9816 0.4979
vt 0.9816 0.6303
vt 0.7594 0.3004
vt 0.8077 0.3604
vt 0.7594 0.3604
vt 0.8077 0.3004
vt 0.7494 0.3617
vt 0.8094 0.7215
vt 0.8094 0.3617
vt 0.9623 0.1343
vt 0.9023 0.2692
vt 0.9023 0.1343
vt 0.7594 0.2560
vt 0.8194 0.0006
vt 0.8194 0.2560
vt 0.9816 0.3617
vt 0.9216 0.4966
vt 0.9816 0.4966
vt 0.8676 0.9513
vt 0.2368 0.6341
vt 0.2406 0.7275
vt 0.0940 0.8624
vt 0.2406 0.8624
vt 0.4211 0.6341
vt 0.3862 0.9505
vt 0.3862 0.6341
vt 0.4202 0.0006
vt 0.5551 0.3170
vt 0.4202 0.3170
vt 0.7388 0.8882
vt 0.4224 0.9231
vt 0.7388 0.9231
vt 0.2582 0.6328
vt 0.2582 0.6328
vt 0.2582 0.6328
vt 0.5848 0.3617
vt 0.2934 0.4966
vt 0.5848 0.4966
vt 0.7138 0.9244
vt 0.4224 0.9593
vt 0.7138 0.9593
vt 0.0006 0.3617
vt 0.2921 0.4966
vt 0.0006 0.4966
vt 0.2840 0.3532
vt 0.4469 0.3183
vt 0.2840 0.3183
vt 0.0940 0.4979
vt 0.0940 0.4979
vt 0.0940 0.4979
vt 0.2582 0.6328
vt 0.2582 0.4979
vt 0.0940 0.4979
vt 0.0940 0.6328
vt 0.1648 0.9269
vt 0.2998 0.9619
vt 0.2998 0.9269
vt 0.4211 0.6328
vt 0.2569 0.4979
vt 0.0006 0.9269
vt 0.1635 0.9619
vt 0.0006 0.9619
vt 0.9636 0.2692
vt 0.9985 0.1343
vt 0.9985 0.2692
vt 0.9573 0.6853
vt 0.8107 0.6503
vt 0.9573 0.6503
vt 0.9573 0.6865
vt 0.8107 0.7215
vt 0.9573 0.7215
vt 0.7327 0.8577
vt 0.5861 0.7228
vt 0.7327 0.7228
vt 0.0006 0.3604
vt 0.5861 0.3617
vt 0.5564 0.3376
vt 0.8676 0.7228
vt 0.3318 0.6810
vt 0.5041 0.4979
vt 0.8206 0.1343
vt 0.9493 0.8551
vt 0.8663 0.8632
vt 0.3340 0.9961
vt 0.8676 0.8564
vt 0.2344 0.0006
vt 0.9180 0.0006
vt 0.3746 0.6793
vt 0.9193 0.0980
vt 0.4224 0.8869
vt 0.0940 0.6810
vt 0.2419 0.8624
vt 0.9172 0.9913
vt 0.6677 0.7215
vt 0.8663 0.9994
vt 0.0927 0.7545
vt 0.0006 0.7532
vt 0.4224 0.4979
vt 0.9203 0.3617
vt 0.6968 0.0006
vt 0.7741 0.9994
vt 0.0006 0.9257
vt 0.4189 0.0006
vt 0.6981 0.0006
vt 0.8997 0.3004
vt 0.5845 0.8869
vt 0.8707 0.6170
vt 0.9216 0.4979
vt 0.7494 0.7215
vt 0.9623 0.2692
vt 0.7594 0.0006
vt 0.9216 0.3617
vt 0.0940 0.7275
vt 0.4211 0.9505
vt 0.5551 0.0006
vt 0.4224 0.8882
vt 0.2934 0.3617
vt 0.4224 0.9244
vt 0.2921 0.3617
vt 0.4469 0.3532
vt 0.2582 0.4979
vt 0.0940 0.6328
vt 0.1648 0.9619
vt 0.4211 0.4979
vt 0.2569 0.6328
vt 0.1635 0.9269
vt 0.9636 0.1343
vt 0.8107 0.6853
vt 0.8107 0.6865
vt 0.5861 0.8577
vn 0.0000 -1.0000 -0.0000
vn 0.0000 1.0000 -0.0000
vn 1.0000 0.0000 0.0000
vn -0.0000 -0.0000 1.0000
vn -1.0000 -0.0000 0.0000
vn 0.0000 0.0000 -1.0000
vn -0.0000 0.6823 0.7311
usemtl Material
s off
f 36/1/1 3/2/1 31/3/1
f 35/4/2 7/5/2 22/6/2
f 30/7/3 46/8/3 56/9/3
f 22/10/4 47/11/4 54/12/4
f 49/13/5 8/14/5 48/15/5
f 72/16/6 4/17/6 70/18/6
f 58/19/5 12/20/5 49/21/5
f 5/22/3 50/23/3 45/24/3
f 21/25/2 12/26/2 24/27/2
f 19/28/1 10/29/1 4/30/1
f 1/31/1 18/32/1 13/33/1
f 5/34/2 17/35/2 11/36/2
f 1/37/6 71/38/6 67/39/6
f 6/40/4 52/41/4 46/42/4
f 30/43/2 16/44/2 6/45/2
f 2/46/1 34/47/1 29/48/1
f 13/33/1 23/49/1 19/28/1
f 21/50/5 28/51/5 27/52/5
f 13/53/6 72/16/6 71/54/6
f 16/55/4 54/12/4 52/41/4
f 33/56/2 22/6/2 16/44/2
f 34/47/1 20/57/1 36/1/1
f 25/58/2 28/59/2 26/60/2
f 24/61/7 26/62/7 28/63/7
f 15/64/3 26/65/3 17/66/3
f 21/67/6 25/68/6 15/69/6
f 39/70/1 36/71/1 40/72/1
f 43/73/2 35/74/2 33/75/2
f 41/76/1 34/77/1 39/70/1
f 42/78/2 33/79/2 30/80/2
f 7/81/5 55/82/5 47/83/5
f 42/84/3 56/85/3 57/86/3
f 44/87/2 32/88/2 35/74/2
f 40/72/1 31/89/1 37/90/1
f 23/91/1 37/92/1 10/93/1
f 24/94/2 38/95/2 44/96/2
f 11/97/3 57/98/3 50/99/3
f 11/100/2 43/101/2 42/102/2
f 9/103/1 39/104/1 18/105/1
f 17/106/2 44/96/2 43/107/2
f 18/105/1 40/108/1 23/91/1
f 32/109/5 58/110/5 55/111/5
f 55/112/4 79/113/4 63/114/4
f 50/99/3 65/115/3 60/116/3
f 65/117/1 75/118/1 64/119/1
f 47/83/5 63/120/5 69/121/5
f 52/41/4 62/122/4 61/123/4
f 51/124/6 21/67/6 15/69/6
f 46/42/4 61/123/4 68/125/4
f 45/126/6 15/127/6 5/128/6
f 45/24/3 60/129/3 67/130/3
f 66/131/5 49/21/5 59/132/5
f 53/133/6 8/134/6 21/67/6
f 59/135/5 48/15/5 70/136/5
f 54/12/4 69/137/4 62/122/4
f 56/9/3 68/138/3 64/139/3
f 64/140/3 2/141/3 29/142/3
f 62/143/4 3/144/4 20/145/4
f 10/146/5 70/147/5 4/148/5
f 37/149/5 59/150/5 10/151/5
f 67/152/3 9/153/3 1/154/3
f 68/155/4 14/156/4 2/157/4
f 61/158/4 20/145/4 14/156/4
f 69/159/5 31/160/5 3/161/5
f 65/162/3 29/163/3 41/164/3
f 60/165/3 41/166/3 9/167/3
f 31/168/5 66/169/5 37/170/5
f 71/54/6 53/133/6 51/124/6
f 67/39/6 51/171/6 45/126/6
f 72/16/6 48/172/6 53/133/6
f 76/173/1 91/174/1 75/175/1
f 64/176/4 74/177/4 56/178/4
f 57/179/2 74/180/2 73/181/2
f 57/182/6 76/183/6 65/184/6
f 79/185/4 81/186/4 83/187/4
f 63/188/1 80/189/1 66/190/1
f 66/191/6 78/192/6 58/193/6
f 58/194/2 77/195/2 55/196/2
f 84/197/6 86/198/6 82/199/6
f 78/200/4 84/201/4 82/202/4
f 77/203/4 82/204/4 81/186/4
f 80/205/4 83/206/4 84/201/4
f 87/207/5 86/208/5 88/209/5
f 82/204/2 85/210/2 81/186/2
f 83/206/1 88/211/1 84/201/1
f 81/212/4 87/213/4 83/214/4
f 89/215/3 91/216/3 92/217/3
f 75/218/4 90/219/4 74/220/4
f 73/221/6 92/222/6 76/223/6
f 74/224/2 89/225/2 73/226/2
f 36/1/1 20/57/1 3/2/1
f 35/4/2 32/227/2 7/5/2
f 30/7/3 6/228/3 46/8/3
f 22/10/4 7/229/4 47/11/4
f 49/13/5 12/230/5 8/14/5
f 72/16/6 19/231/6 4/17/6
f 58/19/5 38/232/5 12/20/5
f 5/22/3 11/233/3 50/23/3
f 21/25/2 8/234/2 12/26/2
f 19/28/1 23/49/1 10/29/1
f 1/31/1 9/235/1 18/32/1
f 5/34/2 15/236/2 17/35/2
f 1/37/6 13/237/6 71/38/6
f 6/40/4 16/55/4 52/41/4
f 30/43/2 33/56/2 16/44/2
f 2/46/1 14/238/1 34/47/1
f 13/33/1 18/32/1 23/49/1
f 21/50/5 24/239/5 28/51/5
f 13/53/6 19/231/6 72/16/6
f 16/55/4 22/10/4 54/12/4
f 33/56/2 35/4/2 22/6/2
f 34/47/1 14/238/1 20/57/1
f 25/58/2 27/240/2 28/59/2
f 24/61/7 17/241/7 26/62/7
f 15/64/3 25/242/3 26/65/3
f 21/67/6 27/243/6 25/68/6
f 39/70/1 34/77/1 36/71/1
f 43/73/2 44/87/2 35/74/2
f 41/76/1 29/244/1 34/77/1
f 42/78/2 43/245/2 33/79/2
f 7/81/5 32/246/5 55/82/5
f 42/84/3 30/247/3 56/85/3
f 44/87/2 38/248/2 32/88/2
f 40/72/1 36/71/1 31/89/1
f 23/91/1 40/108/1 37/92/1
f 24/94/2 12/249/2 38/95/2
f 11/97/3 42/250/3 57/98/3
f 11/100/2 17/251/2 43/101/2
f 9/103/1 41/252/1 39/104/1
f 17/106/2 24/94/2 44/96/2
f 18/105/1 39/104/1 40/108/1
f 32/109/5 38/253/5 58/110/5
f 55/112/4 77/254/4 79/113/4
f 50/99/3 57/98/3 65/115/3
f 65/117/1 76/255/1 75/118/1
f 47/83/5 55/82/5 63/120/5
f 52/41/4 54/12/4 62/122/4
f 51/124/6 53/133/6 21/67/6
f 46/42/4 52/41/4 61/123/4
f 45/126/6 51/171/6 15/127/6
f 45/24/3 50/23/3 60/129/3
f 66/131/5 58/19/5 49/21/5
f 53/133/6 48/172/6 8/134/6
f 59/135/5 49/13/5 48/15/5
f 54/12/4 47/11/4 69/137/4
f 56/9/3 46/8/3 68/138/3
f 64/140/3 68/256/3 2/141/3
f 62/143/4 69/257/4 3/144/4
f 10/146/5 59/258/5 70/147/5
f 37/149/5 66/259/5 59/150/5
f 67/152/3 60/260/3 9/153/3
f 68/155/4 61/158/4 14/156/4
f 61/158/4 62/143/4 20/145/4
f 69/159/5 63/261/5 31/160/5
f 65/162/3 64/262/3 29/163/3
f 60/165/3 65/263/3 41/166/3
f 31/168/5 63/264/5 66/169/5
f 71/54/6 72/16/6 53/133/6
f 67/39/6 71/38/6 51/171/6
f 72/16/6 70/18/6 48/172/6
f 76/173/1 92/265/1 91/174/1
f 64/176/4 75/266/4 74/177/4
f 57/179/2 56/267/2 74/180/2
f 57/182/6 73/268/6 76/183/6
f 79/185/4 77/203/4 81/186/4
f 63/188/1 79/269/1 80/189/1
f 66/191/6 80/270/6 78/192/6
f 58/194/2 78/271/2 77/195/2
f 84/197/6 88/272/6 86/198/6
f 78/200/4 80/205/4 84/201/4
f 77/203/4 78/273/4 82/204/4
f 80/205/4 79/274/4 83/206/4
f 87/207/5 85/275/5 86/208/5
f 82/204/2 86/276/2 85/210/2
f 83/206/1 87/277/1 88/211/1
f 81/212/4 85/278/4 87/213/4
f 89/215/3 90/279/3 91/216/3
f 75/218/4 91/280/4 90/219/4
f 73/221/6 89/281/6 92/222/6
f 74/224/2 90/282/2 89/225/2
